# xmcd CD database file
#
# Track frame offsets:
#	150
#	17163
#	36620
#	53613
#	72771
#	89583
#	110284
#	132428
#	150613
#	171213
#	191624
#
# Disc length: 2756 seconds
#
# Revision: 0
# Processed by: cddbd v1.5.1PL0 Copyright (c) Steve Scherf et al.
# Submitted via: CDex 1.51
#
DISCID=940ac20b
DTITLE=永井真理子 - AIR
DYEAR=2004
DGENRE=JPop
TTITLE0=やさしい空気
TTITLE1=蒼のまま
TTITLE2=私の一日の真ん中で
TTITLE3=天国の島
TTITLE4=ふたつの心
TTITLE5=You Rock
TTITLE6=光に向かって
TTITLE7=Tobujikandesu
TTITLE8=風が吹く時
TTITLE9=私を救う薬
TTITLE10=おやすみ
EXTD=YEAR: 2004
EXTT0=
EXTT1=
EXTT2=
EXTT3=
EXTT4=
EXTT5=
EXTT6=
EXTT7=
EXTT8=
EXTT9=
EXTT10=
PLAYORDER=
